<svg width="26" height="26" viewBox="0 0 26 26" fill="none" xmlns="http://www.w3.org/2000/svg">
<path d="M0.386719 11.4315H1.79908C1.83524 11.1029 1.89054 10.7765 1.95435 10.4544C2.10324 9.72692 2.32446 9.00585 2.61586 8.32105C2.90088 7.64479 3.24972 6.99625 3.66237 6.38399C4.06863 5.78025 4.53658 5.21279 5.0492 4.69652C5.56182 4.18239 6.12974 3.71305 6.73169 3.30559C7.33577 2.89385 7.98452 2.54185 8.66305 2.25599C9.34583 1.96585 10.0648 1.74399 10.7901 1.59252C11.1091 1.52852 11.4367 1.47732 11.7643 1.43679V0.0117188C5.77452 0.630385 0.999307 5.41332 0.386719 11.4315ZM24.3755 14.0725C24.3394 14.4011 24.2841 14.7275 24.2202 15.0496C24.0714 15.7771 23.8501 16.4981 23.5587 17.1829C23.2737 17.8592 22.9249 18.5077 22.5122 19.12C22.106 19.7237 21.638 20.2912 21.1254 20.8075C20.6128 21.3216 20.0449 21.7909 19.4429 22.1984C18.8388 22.6101 18.1901 22.9621 17.5115 23.248C16.8288 23.5381 16.1098 23.76 15.3845 23.9115C15.0654 23.9755 14.7379 24.0267 14.4103 24.0672V25.4837C20.4086 24.8693 25.1838 20.0821 25.7943 14.0661L24.3755 14.0725ZM8.66305 23.2501C7.98877 22.9643 7.34215 22.6144 6.73169 22.2005C6.12974 21.7931 5.56394 21.3237 5.0492 20.8096C4.53658 20.2955 4.0665 19.7237 3.65811 19.12C3.24759 18.5141 2.89663 17.8635 2.61161 17.1829C2.32233 16.4981 2.10112 15.7771 1.9501 15.0496C1.88628 14.7296 1.83524 14.4011 1.79482 14.0725H0.386719C0.999307 20.0885 5.77239 24.8779 11.7707 25.4901V24.0736C11.4431 24.0373 11.1177 23.9819 10.7965 23.9179C10.0669 23.7685 9.34583 23.5424 8.66305 23.2501ZM14.4039 0.0138522V1.43039C14.7315 1.46665 15.0569 1.52212 15.3781 1.58612C16.1034 1.73545 16.8224 1.95732 17.5052 2.24959C18.1794 2.53545 18.8261 2.88532 19.4365 3.29919C20.0385 3.70665 20.6043 4.17599 21.119 4.69012C21.6316 5.20425 22.0996 5.77385 22.5058 6.37759C22.9164 6.98345 23.2673 7.63412 23.5524 8.31465C23.8416 8.99945 24.0628 9.72052 24.2139 10.448C24.2777 10.768 24.3287 11.0965 24.3691 11.4251H25.7836C25.1732 5.41332 20.4043 0.630386 14.4039 0.0138522Z" fill="black"/>
<path d="M9.35558 18.186H5.89062V15.1289H12.4015L9.35558 18.186Z" fill="black"/>
<path d="M20.2853 15.1137H12.4004C14.2573 13.2449 15.2272 12.0566 17.9137 12.0566H20.2853V15.1137Z" fill="black"/>
<path d="M16.8213 7.31641H20.2863V10.3735H13.7754L16.8213 7.31641Z" fill="black"/>
<path d="M5.89062 10.3887H13.7734C11.9165 12.2575 10.9466 13.4457 8.26015 13.4457H5.89062V10.3887Z" fill="black"/>
</svg>
